<svg id="圖層_1" data-name="圖層 1" xmlns="http://www.w3.org/2000/svg" viewBox="0 0 600 600"><defs><style>.cls-1{fill:#0d2332;}.cls-2{fill:#fff;}</style></defs><circle class="cls-1" cx="299.46" cy="302.6" r="293.5"/><path class="cls-2" d="M276.05,135.6c-8.54,14.82-17,29.71-25.76,44.38-.95,1.58-3.87,2.36-6,2.72-47.19,7.85-90.1,25.93-126.94,57.22C69,281,38.73,333.26,29.39,397.13c-7,47.82-.47,94.21,16.9,139.06a9.76,9.76,0,0,1-.64,9.42c-6.94,12.06-13.53,24.32-20.27,36.5-.79,1.43-1.66,2.82-3.13,5.29C-34.45,481.66-35.12,377,26.91,275.56c56.66-92.67,142.74-136.08,248-141.77Z" transform="translate(19.96 -133.79)"/><path class="cls-2" d="M537.59,587.14c-1.2-2.09-2.19-3.79-3.16-5.51-6.83-12.13-13.59-24.3-20.54-36.36a8.11,8.11,0,0,1-.49-8C528.91,499.39,537.35,460,534,419c-5.69-70-34-128.69-86.43-174.91-37.64-33.15-81.34-52.63-130-61.15-4.62-.81-7.66-2.56-10-6.95-6.8-12.54-14.17-24.74-21.29-37.09-.66-1.14-1.2-2.35-2.1-4.16,5.48,0,10.41-.34,15.28.06,86.38,7,158.18,44.14,214,111.41,40.12,48.39,61.91,105.39,66,168.76,3.93,60.26-10.78,116.31-39.53,168.78C539.33,584.72,538.59,585.65,537.59,587.14Z" transform="translate(19.96 -133.79)"/><path class="cls-2" d="M454.15,556.71c-8.51-28.51-22.45-53.14-37.76-77-10.56-16.47-24.72-28.29-44.23-31.87-12.64-2.31-24.89.31-37.14,3.73-11.89,3.32-23.95,7.07-36.13,8-35.9,2.81-65.43-20.09-71.76-54.65-5.24-28.6,5.65-51.83,24.45-71.93,11.31-12.09,25.54-19.9,40.84-25.31,16.86-6,32.61-14,48-23.15,11.35-6.72,23.16-12.76,36.82-11.64,6.94.57,13.81,2.22,20.64,3.66,8,1.69,15.86,4.16,23.9,5.46,11.51,1.87,16.33,9.09,12.43,20.37a23.4,23.4,0,0,1-4.81,8.27c-11.43,12.06-23.6,23.26-38.31,31.12a59.67,59.67,0,0,1-36.51,6.49c-13.94-1.78-27.9-4.2-42-1.48-13.28,2.56-25.19,8.08-34.66,18.25-5.18,5.56-8.9,12-9.89,19.73-2.58,20.06,12.59,34.55,33.13,31.08A136.76,136.76,0,0,0,325.79,409C392.4,384.19,450,431.43,464.35,483.85c6.33,23.15,4,45.61-6.68,67.11C456.78,552.75,455.59,554.38,454.15,556.71Zm-70-265.31a11.9,11.9,0,0,0-11.91,12.32,12.1,12.1,0,1,0,24.19-.32A12,12,0,0,0,384.18,291.4Z" transform="translate(19.96 -133.79)"/><path class="cls-2" d="M517.19,618.65c-58.13,71.9-132.93,111.93-224.52,115-101.1,3.33-184.14-37.12-249.75-114.87l.42-1.55c1.39-.11,2.79-.31,4.18-.32,15.74-.05,31.47.12,47.2-.22a17.51,17.51,0,0,1,12.7,4.56,265.57,265.57,0,0,0,81.11,48.16c63,23.58,125.87,24.25,188.61-1.39,28.26-11.54,53.45-28,76.82-47.7a14.31,14.31,0,0,1,8.4-3.21c18.06-.29,36.12-.15,54.18-.15Z" transform="translate(19.96 -133.79)"/><path class="cls-2" d="M110.13,551.39H270V594H41.42c1.84-3.41,3.38-6.34,5-9.24Q93.28,499,140.14,413.15c1.65-3,3.46-4.33,7-4.26,13,.23,26.07.09,40.05.09Z" transform="translate(19.96 -133.79)"/><path class="cls-2" d="M143.86,529.3c18-30.44,40.54-51.21,76.17-51.55,19.92-.19,39.84.12,59.76-.07,29.3-.28,53.57,11.39,74.18,32,6.22,6.21,12.06,12.84,18.58,18.69,8,7.14,17.47,11.44,28.17,8.92,5.88-1.39,11.23-5.16,17.48-8.17a103.63,103.63,0,0,1,13.26,30.7c4.05,16.25,6,12.17-9.06,18.06-27.35,10.67-52.67,5.18-75.08-13.76-6.42-5.42-12.09-11.78-18.11-17.71C317.68,535,304.7,526.28,288.5,523.65a66.85,66.85,0,0,0-10.49-.72c-20.75-.07-41.52-.47-62.26.19-6.94.22-13.8,3.22-20.69,5-1.11.29-2.17,1.13-3.25,1.14C176.28,529.32,160.74,529.3,143.86,529.3Z" transform="translate(19.96 -133.79)"/><path class="cls-2" d="M279.24,248.58c-7.36,13.4-14,25.4-20.55,37.43-3.49,6.4-6.84,12.89-10.31,19.3a10.05,10.05,0,0,1-2.21,2.73c-22.15,19-34.46,44.38-44.11,71.38-1.27,3.55-2.72,4.68-6.29,4.63-12.85-.2-25.71-.08-40.34-.08,41.49-72.23,82.41-143.45,124.12-216.05,18.69,32,36.67,62.86,54.88,94.06l-34.81,21.17Z" transform="translate(19.96 -133.79)"/><path class="cls-2" d="M517.29,594.06h-66c6.83-7.31,14.56-14.1,20.41-22.28s9.78-17.72,14.92-27.37Z" transform="translate(19.96 -133.79)"/><path class="cls-2" d="M346,594H298.25v-43.7Z" transform="translate(19.96 -133.79)"/><path class="cls-2" d="M396.25,363.38c5.35,8.94,10.29,17.19,15.87,26.53-2.34-.77-3.63-1.1-4.85-1.6-10.94-4.46-22.19-7.74-34.07-6.66-5.91.53-9.87-1.27-12.63-6.46-.84-1.57-2-3-3.7-5.38C371,371.11,383.79,370.11,396.25,363.38Z" transform="translate(19.96 -133.79)"/><path class="cls-2" d="M466.46,359.49c-5.82,2.29-9.76-1.19-13.66-4v16.31l-1.34.65c-1.58-3.47-4.12-6.82-4.58-10.45-1.76-13.9-9.67-21.55-22.45-24.81,1-5.25,2.39-6.64,6.86-4.65a74.39,74.39,0,0,1,15.89,9.4C453.85,347.25,459.85,353.4,466.46,359.49Z" transform="translate(19.96 -133.79)"/></svg>